<svg xmlns="http://www.w3.org/2000/svg" viewBox="0 0 577 721" width="577" height="721"><defs></defs><g transform="matrix(1,0,0,1,-719.157155717,-270.16161761)">
<rect x="0" y="0" width="577" height="721" transform="matrix(1,0,0,1,719.157155717,270.16161761)" fill="white"/>
<g>
	<path d="M1213.825188,971.972433Q1207.416533,958.157259 1191.394896,943.88158 Q1175.37326,929.6059 1152.942968,915.790727 Q1130.512677,901.975553 1104.878058,889.081391 Q1079.24344,876.187229 1054.409903,863.753573 Q1029.576366,851.319917 1007.947156,840.267778 Q992.726602,832.899686 981.511456,825.531593 Q1004.742829,841.18879 1030.377448,854.082952 Q1060.017476,869.740149 1090.058044,886.318357 Q1120.098613,902.896565 1148.136477,921.316796 Q1176.174341,939.737028 1199.405715,963.683328 Q1176.174341,956.315236 1140.926741,939.276522 Q1105.67914,922.237808 1069.229917,901.515048 Q1032.780693,880.792287 998.734715,859.609021 Q964.688737,838.425755 943.86061,822.768559 Q949.468183,814.479454 949.468183,814.479454 Q927.037891,796.980235 903.806518,773.954945 Q880.575145,750.929656 867.757836,723.299309 Q858.945936,766.586853 857.343772,806.19035 Q855.741608,845.793848 855.741608,881.713299 Q855.741608,894.607461 861.349181,906.120105 Q866.956754,917.63275 866.956754,927.763877 Q866.956754,941.579051 855.741608,944.342086 Q849.332954,926.842866 846.128626,909.343646 Q842.924299,891.844426 841.322135,874.345206 Q841.322135,892.765438 842.924299,910.264658 Q845.327544,928.684889 850.935117,947.10512 Q838.91889,952.63119 838.91889,952.63119 C838.91889,952.63119 846.128626,963.683328 846.128626,963.683328 Q844.526463,973.814456 839.319431,982.564066 Q834.112399,991.313676 823.698335,991.313676 Q810.881026,991.313676 802.870207,975.195973 Q795.25993,959.078271 791.254521,936.513487 Q786.848571,913.948704 785.646948,890.462909 Q784.445325,866.977114 784.445325,851.319917 Q784.445325,820.005524 784.845866,789.612142 Q785.246407,759.21876 786.848571,727.904367 Q782.843161,757.376737 782.442621,787.770119 Q782.04208,818.163501 782.04208,848.556882 Q782.04208,880.792287 785.246407,914.869715 Q788.450734,948.947143 794.859389,980.261537 Q784.445325,969.209398 779.238293,955.394224 Q774.031261,941.579051 771.227475,926.38236 Q768.423688,911.185669 767.222066,895.528472 Q766.020443,879.871276 765.219361,865.135091 Q774.832343,862.372056 774.832343,862.372056 Q771.628016,848.556882 770.826934,834.281203 Q770.025852,820.005524 770.025852,805.269339 Q770.025852,773.033934 774.031261,742.180046 Q778.03667,711.326159 778.03667,679.090754 Q778.03667,668.038615 778.03667,668.038615 C778.03667,668.038615 777.235589,645.013326 777.235589,645.013326 C777.235589,645.013326 772.429098,645.013326 772.429098,645.013326 Q770.826934,689.221881 768.023148,733.430436 Q765.219361,777.638992 764.418279,822.768559 Q763.617197,813.558443 763.617197,805.269339 Q763.617197,787.770119 763.216657,787.770119 Q763.216657,720.536274 769.625311,655.604959 Q775.633425,590.673643 782.04208,524.36081 Q783.644243,503.177544 791.655062,485.217819 Q799.66588,467.258093 804.472371,447.91685 Q807.676698,450.679885 812.483189,451.140391 Q817.28968,451.600897 821.295089,452.061402 Q825.300499,452.521908 828.504826,455.284943 Q831.709153,458.047978 831.709153,464.495059 Q831.709153,468.179105 830.908071,471.863151 Q829.305908,479.231244 829.305908,479.231244 C829.305908,479.231244 836.515644,481.994278 836.515644,481.994278 Q842.123217,471.863151 850.935117,462.653035 Q859.747017,453.44292 870.962163,453.44292 Q879.774063,453.44292 883.779472,461.732024 Q887.784882,470.021128 887.784882,479.231244 Q887.784882,484.757313 886.583259,502.256533 Q885.381636,519.755753 883.378931,542.781042 Q881.376227,565.806331 878.57244,592.055161 Q876.169195,618.30399 874.567031,641.32928 Q872.564327,664.354569 870.962163,680.472271 Q869.359999,696.589974 869.359999,700.27402 Q888.585963,650.539395 888.585963,650.539395 Q886.182718,658.828499 884.180013,664.354569 Q882.177309,669.880638 880.575145,675.406708 Q878.972981,680.932777 876.169195,687.379858 Q873.365409,693.826939 868.558918,703.958066 Q868.558918,716.852228 868.558918,716.852228 C868.558918,716.852228 894.594077,647.776361 894.594077,647.776361 Q907.411386,647.776361 920.228696,647.315855 Q932.645464,646.855349 945.462774,644.092314 Q953.473592,642.250291 953.473592,642.250291 Q935.849792,642.250291 925.836269,641.789785 Q915.822746,641.32928 907.010846,639.487256 Q939.054119,639.487256 970.696851,638.105739 Q1002.339584,636.724222 1035.183939,636.724222 Q1064.022885,636.724222 1092.46129,634.882199 Q1120.899695,633.040175 1143.730527,621.988037 Q1166.561359,610.935898 1180.580291,587.910609 Q1194.999764,564.885319 1194.999764,522.518787 Q1194.999764,479.231244 1185.386782,452.521908 Q1175.7738,425.812573 1157.749459,410.615882 Q1139.725118,395.419191 1112.488336,390.353627 Q1085.251553,385.288064 1050.805035,385.288064 Q980.309833,385.288064 909.01355,392.656156 Q837.717267,400.024249 769.625311,420.286503 Q768.023148,412.918411 767.222066,406.931835 Q766.420984,400.94526 763.216657,396.340202 Q763.216657,390.814133 772.028557,386.209075 Q780.840457,381.604017 792.055603,378.840983 Q803.270748,376.077948 813.284271,374.235925 Q823.297794,372.393902 826.502121,371.47289 Q826.502121,360.420751 826.502121,360.420751 Q820.894548,361.341763 807.276157,362.262774 Q793.657766,363.183786 777.63613,363.183786 Q756.00692,363.183786 737.582038,359.960246 Q719.157156,356.736705 719.157156,346.605578 Q719.157156,335.553439 740.385824,325.422312 Q761.614493,315.291184 794.458848,306.541575 Q827.303203,297.791965 866.556213,291.344884 Q905.809223,284.897803 942.258446,279.832239 Q978.70767,274.766675 1007.146075,272.464147 Q1035.58448,270.161618 1046.799625,270.161618 Q1104.477517,270.161618 1150.940264,283.516285 Q1197.40301,296.870953 1229.846824,327.264335 Q1262.290638,357.657717 1279.513898,406.931835 Q1296.737157,456.205954 1296.737157,528.044857 Q1296.737157,587.910609 1277.110652,629.816635 Q1257.484147,671.722661 1224.639792,697.971491 Q1191.795437,724.220321 1149.3381,736.653977 Q1106.880763,749.087633 1061.219098,749.087633 Q1048.401789,749.087633 1035.985021,748.166622 Q1023.568252,747.24561 1010.750943,746.324598 Q1019.562843,752.771679 1039.99043,763.823818 Q1060.418017,774.875957 1085.652094,788.691131 Q1110.886172,802.506304 1138.523495,817.702995 Q1166.160818,832.899686 1188.59111,847.175365 Q1211.021401,861.451044 1225.440874,873.884701 Q1239.860347,886.318357 1239.860347,893.686449 Q1235.854938,899.212519 1235.854938,899.212519 Q1209.419237,877.108241 1181.381373,860.530033 Q1153.343509,843.951825 1124.104022,829.21564 Q1094.864535,814.479454 1065.224508,800.664281 Q1037.186643,786.849107 1009.148779,768.428876 Q1036.385562,786.849107 1063.622344,800.664281 Q1120.499154,830.136651 1120.499154,830.136651 Q1149.3381,844.872836 1176.975423,860.990539 Q1204.612746,877.108241 1230.247365,899.212519 Q1219.833301,910.264658 1219.833301,910.264658 Q1225.440874,914.869715 1233.051152,922.698314 Q1240.661429,930.526912 1247.470625,939.737028 Q1254.27982,948.947143 1259.086311,958.617765 Q1263.892802,968.288386 1263.892802,976.57749 Q1263.892802,988.550641 1254.27982,988.550641 Q1244.666838,988.550641 1233.451692,982.10356 Q1222.236547,975.656479 1213.424647,971.972433 Q1213.424647,971.972433 1213.825188,971.972433 ZM1038.788807,642.250291Q1022.76717,642.250291 1005.543911,642.710797 Q988.320652,643.171303 970.696851,643.171303 Q990.723897,644.092314 1012.353107,645.473832 Q1033.982316,646.855349 1056.412607,646.855349 Q1084.450472,646.855349 1111.286713,642.710797 Q1138.122954,638.566245 1158.951082,625.211577 Q1179.77921,611.856909 1192.195978,588.371114 Q1204.612746,564.885319 1204.612746,526.202834 Q1204.612746,513.308672 1203.010583,501.335521 Q1201.408419,489.362371 1199.005174,476.468209 Q1194.198683,476.468209 1194.198683,476.468209 Q1199.005174,498.572487 1199.005174,521.597776 Q1199.005174,563.043296 1186.187864,586.989597 Q1173.370555,610.935898 1151.741345,623.369554 Q1130.112136,635.80321 1100.872649,639.026751 Q1071.633162,642.250291 1038.788807,642.250291 Q1038.788807,642.250291 1038.788807,642.250291 ZM896.997323,662.512546Q929.040596,664.354569 962.285492,664.815075 Q995.530388,665.27558 1030.777989,665.27558 Q1051.606116,665.27558 1072.434244,663.894063 Q1093.262372,662.512546 1112.488336,657.907488 Q1103.676436,659.749511 1094.864535,659.749511 Q1078.041817,659.749511 1078.041817,659.749511 Q1068.428835,659.749511 1054.810444,659.289005 Q1041.192053,658.828499 1025.170416,657.907488 Q1009.148779,656.986476 991.524979,656.52597 Q973.901179,656.065465 957.07846,656.065465 Q938.653578,656.065465 923.433023,656.986476 Q908.212468,657.907488 896.997323,662.512546 Q896.997323,662.512546 896.997323,662.512546 ZM866.556213,733.430436Q882.57785,757.376737 899.000027,778.099497 Q915.422205,798.822258 936.250332,817.242489 Q917.024368,801.585292 897.397864,779.481015 Q877.771359,757.376737 866.556213,733.430436 Q866.556213,733.430436 866.556213,733.430436 ZM985.116324,726.062344Q1001.137961,727.904367 1017.159598,728.825379 Q1032.380152,729.74639 1045.998544,730.667402 Q1034.783398,729.74639 1023.568252,727.904367 Q1010.750943,725.141332 997.933634,725.141332 Q991.524979,725.141332 991.524979,725.141332 Q988.320652,725.141332 985.116324,726.062344 Q985.116324,726.062344 985.116324,726.062344 ZM894.594077,662.512546Q893.792995,665.27558 890.188127,673.564684 Q886.583259,681.853789 882.978391,691.52441 Q879.373522,701.195032 876.169195,709.484136 Q872.964868,717.77324 872.964868,720.536274 Q874.567031,718.694251 874.567031,718.694251 C874.567031,718.694251 894.594077,665.27558 894.594077,665.27558 C894.594077,665.27558 894.594077,662.512546 894.594077,662.512546 C894.594077,662.512546 894.594077,662.512546 894.594077,662.512546 ZM977.906588,743.561564C977.906588,743.561564 975.503342,743.561564 975.503342,743.561564 Q986.718488,753.692691 1001.137961,762.902807 Q977.906588,743.561564 977.906588,743.561564 C977.906588,743.561564 977.906588,743.561564 977.906588,743.561564 ZM879.373522,727.904367Q880.975686,732.509425 884.580554,738.496 Q888.185422,744.482575 893.792995,750.929656 Q888.986504,744.482575 885.782177,737.574988 Q882.57785,730.667402 880.975686,724.220321 Q879.373522,727.904367 879.373522,727.904367 C879.373522,727.904367 879.373522,727.904367 879.373522,727.904367 ZM973.901179,820.926535Q976.304424,822.768559 977.906588,823.68957 Q973.901179,820.926535 973.901179,820.926535 C973.901179,820.926535 973.901179,820.926535 973.901179,820.926535 Z" transform="" fill="#000000"/>
</g></g></svg>